<svg width="43" height="36" viewBox="0 0 43 36" fill="none" xmlns="http://www.w3.org/2000/svg">
<path d="M0.585786 17.5858C-0.195262 18.3668 -0.195262 19.6332 0.585787 20.4142L13.3137 33.1421C14.0948 33.9232 15.3611 33.9232 16.1421 33.1421C16.9232 32.3611 16.9232 31.0948 16.1421 30.3137L4.82843 19L16.1421 7.68629C16.9232 6.90524 16.9232 5.63891 16.1421 4.85786C15.3611 4.07682 14.0948 4.07682 13.3137 4.85787L0.585786 17.5858ZM23 17L2 17L2 21L23 21L23 17Z" fill="#7953B3"/>
<path d="M34.98 33.216L33.9 33.216L33.9 31.86C33.9 31.66 33.872 31.496 33.816 31.368C33.76 31.24 33.68 31.144 33.576 31.08C33.472 31.016 33.348 30.984 33.204 30.984C32.988 30.984 32.832 31.056 32.736 31.2C32.632 31.336 32.58 31.556 32.58 31.86L32.58 32.52L37.02 32.52L37.02 31.62C37.02 31.42 37.004 31.236 36.972 31.068C36.94 30.9 36.872 30.764 36.768 30.66C36.664 30.556 36.5 30.504 36.276 30.504C36.14 30.504 36.032 30.536 35.952 30.6C35.864 30.656 35.8 30.736 35.76 30.84C35.712 30.944 35.68 31.064 35.664 31.2C35.648 31.328 35.64 31.468 35.64 31.62L35.64 33.216L34.2 33.216L34.2 31.26C34.2 30.852 34.248 30.444 34.344 30.036C34.432 29.62 34.576 29.24 34.776 28.896C34.976 28.552 35.236 28.276 35.556 28.068C35.868 27.852 36.248 27.744 36.696 27.744C37.256 27.744 37.704 27.884 38.04 28.164C38.376 28.436 38.62 28.836 38.772 29.364C38.924 29.884 39 30.516 39 31.26L39 35.16L30.6 35.16L30.6 31.5C30.6 30.876 30.68 30.32 30.84 29.832C31 29.336 31.24 28.944 31.56 28.656C31.88 28.368 32.28 28.224 32.76 28.224C33.232 28.224 33.636 28.368 33.972 28.656C34.3 28.944 34.552 29.336 34.728 29.832C34.896 30.32 34.98 30.876 34.98 31.5L34.98 33.216ZM37.92 24.9613L36.024 24.9613L36.024 20.5213L37.92 20.5213L37.92 24.9613ZM34.416 22.7653L36.732 23.7973L37.332 23.5933L39 24.5053L39 27.5053L30 22.7653L39 18.0253L39 21.0253L37.416 21.9133L36.732 21.7333L34.416 22.7653ZM34.8 15.1813C35.232 15.1813 35.596 15.0853 35.892 14.8933C36.18 14.6933 36.396 14.4333 36.54 14.1133C36.684 13.7853 36.756 13.4253 36.756 13.0333C36.756 12.6333 36.704 12.2893 36.6 12.0013C36.496 11.7133 36.368 11.4613 36.216 11.2453C36.056 11.0213 35.892 10.8213 35.724 10.6453L38.436 10.6453C38.66 10.9733 38.848 11.3333 39 11.7253C39.16 12.1093 39.24 12.6093 39.24 13.2253C39.24 13.9533 39.136 14.6173 38.928 15.2173C38.72 15.8173 38.42 16.3293 38.028 16.7533C37.636 17.1773 37.168 17.5053 36.624 17.7373C36.08 17.9693 35.472 18.0853 34.8 18.0853C34.128 18.0853 33.52 17.9693 32.976 17.7373C32.432 17.5053 31.964 17.1773 31.572 16.7533C31.18 16.3293 30.88 15.8173 30.672 15.2173C30.464 14.6173 30.36 13.9533 30.36 13.2253C30.36 12.6093 30.436 12.1093 30.588 11.7253C30.74 11.3333 30.932 10.9733 31.164 10.6453L33.876 10.6453C33.708 10.8213 33.544 11.0213 33.384 11.2453C33.224 11.4613 33.096 11.7133 33 12.0013C32.896 12.2893 32.844 12.6333 32.844 13.0333C32.844 13.4253 32.916 13.7853 33.06 14.1133C33.204 14.4333 33.424 14.6933 33.72 14.8933C34.008 15.0853 34.368 15.1813 34.8 15.1813ZM30.6 9.08578L30.6 6.32578L39 6.32578L39 9.08578L30.6 9.08578ZM30.6 3.74578L30.6 0.673781L34.536 3.94978L39 0.493781L39 3.68578L34.62 7.08178L30.6 3.74578Z" fill="#7953B3"/>
</svg>
